PathFileType	4	(X/Y/Z)	Patient4_TMGait_0pt4_02_left_24.trc.trc
DataRate	CameraRate	NumFrames	NumMarkers	Units	OrigDataRate	OrigDataStartFrame	OrigNumFrames
68.292682926829	68.292682926829	5	33	mm	68.292682926829	1	       141
Frame#	Time	Sacral			L.Shoulder			Chest			R.Shoulder			Neck			R.ASIS			L.ASIS			R.Thigh.Superior			R.Thigh.Lateral			R.Thigh.Inferior			R.Patella			L.Thigh.Superior			L.Thigh.Lateral			L.Thigh.Inferior			L.Patella			L.Shank.Superior			L.Shank.Lateral			L.Shank.Inferior			R.Shank.Superior			R.Shank.Lateral			R.Shank.Inferior			R.Heel			R.Midfoot.Superior			R.Midfoot.Lateral			R.Toe			L.Heel			L.Midfoot.Lateral			L.Midfoot.Superior			L.Toe			L.Elbow			L.Wrist			R.Elbow			R.Wrist			
		X1	Y1	Z1	X2	Y2	Z2	X3	Y3	Z3	X4	Y4	Z4	X5	Y5	Z5	X6	Y6	Z6	X7	Y7	Z7	X8	Y8	Z8	X9	Y9	Z9	X10	Y10	Z10	X11	Y11	Z11	X12	Y12	Z12	X13	Y13	Z13	X14	Y14	Z14	X15	Y15	Z15	X16	Y16	Z16	X17	Y17	Z17	X18	Y18	Z18	X19	Y19	Z19	X20	Y20	Z20	X21	Y21	Z21	X22	Y22	Z22	X23	Y23	Z23	X24	Y24	Z24	X25	Y25	Z25	X26	Y26	Z26	X27	Y27	Z27	X28	Y28	Z28	X29	Y29	Z29	X30	Y30	Z30	X31	Y31	Z31	X32	Y32	Z32	X33	Y33	Z33	

1	32.130000000000	925.029501464980	1005.118948724057	523.629859333286	1101.371488904729	1439.291589276959	346.513133035781	1211.376464911025	1364.192436681024	500.102114327257	1138.953377342773	1433.051776937329	680.247360282553	1099.069566562910	1496.902114024180	505.754487565276	1160.491616702921	943.615900539365	631.538304403756	1133.072940853417	966.118538900992	358.509066188565	1200.508120031013	741.965341580960	599.602900565323	1121.363188725188	632.717653977438	661.694602448275	1195.682988227846	581.711514723395	577.629944420673	1195.252924973972	494.696205206609	582.072123353304	1216.617462018725	781.619339738904	373.579226573360	1166.054763010789	656.310277180763	293.911897382748	1275.256416072892	595.017359011371	342.885017124746	1289.085259990846	507.950575466414	333.912961453269	1227.183595037316	437.667033431736	328.379402646684	1086.947791736945	384.673950589570	284.623156371575	1087.981560667590	252.462623179110	336.267340250305	1168.266986134461	405.365288977102	590.500378020098	1099.874285053392	301.354855318666	655.486271904211	1138.543317705598	207.032360667311	588.760461237973	1004.089932942162	42.704194049605	563.270841739479	1175.725421635095	97.569332638084	594.246080175181	1089.760066930602	36.926700084444	635.240873984725	1297.574758421790	45.603325651032	616.886557602396	905.102446487526	170.238914324482	380.366459432970	962.725334388385	133.462997456816	295.107552526387	1068.538672608028	149.247791552699	312.808427516212	1154.072055542378	45.479003389743	274.213686452870	1049.884630645717	1089.882860860266	228.699606927110	1140.991835507723	843.159149792654	209.456436363091	1158.055614244161	1089.671687570452	812.795567102554	1349.117713581248	915.670910971393	780.138383726684	
2	32.144642857143	924.191346349029	1005.921672333846	526.287278013093	1099.646511443692	1439.516549111174	347.537741624992	1210.994831571718	1364.498007498721	500.073412126547	1140.557505327548	1433.794618080592	680.824021993722	1099.353177579054	1497.291956857348	506.477499763352	1160.210352138271	943.669519541398	632.100419188266	1130.802505548191	967.102491821680	359.297766577512	1197.621348329167	741.416002765064	599.431347307161	1117.995609363373	632.846992775516	662.446425450840	1190.950917186610	581.105581006006	577.864591756342	1189.800648972699	494.424104421745	582.428302950964	1215.310924944860	784.131479061751	374.292907327179	1165.924152177531	658.465331677105	294.336048119508	1275.650057435333	598.356377288864	343.243956412811	1291.218393044439	512.732099434915	333.902290356893	1233.121944360124	441.222695301251	327.518247726550	1097.096103798437	380.310666082394	283.826734960696	1107.343567348187	248.573429104554	333.478158058132	1162.611155426067	405.148171180316	590.850610588496	1094.303841881200	301.246456517660	655.962425930055	1132.562078477534	206.884071042430	588.935244103496	997.937049342555	42.682659414289	563.317583470075	1169.466275606386	97.507840479869	594.289886730334	1083.579141080169	36.958324330266	635.377432804471	1291.346874591995	45.559947604085	616.953536188243	932.295031237014	154.493733847962	377.769793960198	990.653678531624	122.804148907055	291.599715682373	1094.581547238576	145.153385572878	308.745685829867	1185.649667536627	48.490737049803	268.057172479034	1042.158533227292	1090.681627569596	231.583713022651	1120.853859257052	841.081396962032	212.093881907058	1166.720385933686	1091.680165629627	813.448007304366	1365.767101243965	930.361161427850	776.965710686374	
3	32.159285714286	923.346683246361	1006.692524157937	528.888827401309	1097.941902323234	1439.706920173967	348.533735737983	1210.628839262034	1364.739612456787	500.002295684516	1142.190041034503	1434.465100068122	681.364674740708	1099.670742043312	1497.632410191325	507.175575740753	1159.920647233141	943.698017443972	632.609614210601	1128.540719974342	968.006740406221	360.044415790137	1194.753037214923	740.857955136561	599.250509003848	1114.668070191613	632.958051093873	663.192439331206	1186.261964351370	580.492943779866	578.096046325272	1184.400583531577	494.138135407722	582.788514164248	1213.866021662001	786.421943961480	375.014067238651	1165.632434558326	660.483153576858	294.708453245638	1275.747435686886	601.441481092054	343.738710113805	1293.063884491622	517.361597836375	333.969324758481	1238.840187805583	444.723783811276	326.699785890751	1107.323607768778	375.849316251787	282.955327981989	1126.867841991065	244.822538573848	330.692536873370	1156.995199408438	404.923488929939	591.205020127292	1088.761323859967	301.130551817982	656.441276108457	1126.591834025503	206.726851577959	589.106838621954	991.776035757011	42.664519248402	563.363957726721	1163.211495172574	97.437851891000	594.328695795907	1077.393676574791	36.986246908607	635.509154062828	1285.119725283814	45.507232594504	617.020083179981	959.999388477729	138.899760073268	375.078208438196	1019.076945424972	112.351712054416	288.047309689213	1120.935439926883	141.328137477532	304.703757364761	1217.495420920844	51.967484745405	262.024313963884	1034.416769329995	1091.494342269552	234.401300983700	1101.036413089121	839.160775543449	214.809763254051	1175.354866487713	1093.622191263623	814.028291438601	1382.190259170770	945.132505759005	773.704194734219	
4	32.173928571429	922.502715578675	1007.402274014452	531.352777189056	1096.299806184342	1439.839737384629	349.457348798084	1210.294581411312	1364.872937948781	499.852280355070	1143.845866403875	1435.008113153710	681.825987319731	1100.043659010681	1497.888452102334	507.810325087312	1159.618535710773	943.686233663210	633.019454926450	1126.321953312288	968.769165897056	360.699073214334	1191.951501734653	740.293291433797	599.051637867784	1111.442287082433	633.034565309518	663.906151953450	1181.702662051153	579.876928164379	578.311840022271	1179.150703762397	493.828933503384	583.141686043646	1212.211270640698	788.319500827408	375.729724924574	1165.080967572101	662.245637900176	294.990004904225	1275.366798990788	604.067429923737	344.426832409992	1294.406613016546	521.670945671500	334.162974097662	1244.115817888458	448.090418035422	325.964864056004	1117.537139771128	371.319869706922	281.978064992734	1146.361252923221	241.386804799581	327.961725880016	1151.511443133099	404.685774210231	591.552001223047	1083.322984015565	301.005985581687	656.910414785795	1120.701219240503	206.557670238962	589.268692651324	985.659507791496	42.654037032737	563.409994852867	1157.022882341514	97.355221138833	594.358803406700	1071.258468494424	37.007296440436	635.629368684800	1278.951852448598	45.438052634020	617.084032184180	988.109074220490	123.854756576062	372.276552345049	1047.888309411955	102.433472266823	284.497905484155	1147.408357312720	138.024448358893	300.778300919825	1249.302770038489	56.152312795887	256.351037471268	1026.742054243115	1092.331625952686	237.076108350816	1082.009036107451	837.540330533513	217.618061570454	1183.832983164038	1095.429328190221	814.447282792344	1398.000091550056	959.862156528674	770.313523719756	
5	32.188571428571	921.666272364138	1008.030535733700	533.613353201859	1094.758876293429	1439.900037270176	350.268696396458	1210.005483925727	1364.864879750579	499.591958210893	1145.519518931246	1435.382364151552	682.168600976961	1100.491274776655	1498.035347072468	508.346224753203	1159.296564903785	943.622451006785	633.292974674751	1124.170558411866	969.342759329402	361.218294050821	1189.252334701992	739.722569269299	598.830900730995	1108.356261146588	633.064527481729	664.561197770744	1177.333709228464	579.259174910101	578.500266448893	1174.118694344458	493.488193540158	583.475809634779	1210.291951693439	789.702159658685	376.428266836182	1164.195333925318	663.671089475656	295.143616804126	1274.381000253357	606.091302134978	345.329222276532	1295.095313325926	525.544057753163	334.511700330324	1248.789474976133	451.272890759998	325.346771098249	1127.678016863573	366.780843925605	280.866516845111	1165.654075920212	238.442546711898	325.343767634882	1146.223004272985	404.431244410943	591.879060560904	1078.034905925385	300.872903252606	657.357132527557	1114.929142363390	206.374083228215	589.414599830693	979.612434742769	42.654327066446	563.456438970441	1150.929709810130	97.256611689358	594.377017154545	1065.198915093875	37.020252975677	635.734692076360	1272.870961023809	45.346666006662	617.143469536326	1016.492521021871	109.748193108792	369.361441145168	1076.978927393001	93.357879024771	281.014995944732	1173.828609115358	135.472016259184	297.078032644226	1280.806491954831	61.238643678520	251.298971100117	1019.188648885354	1093.210159469318	239.556719974109	1064.110717734805	836.326646931354	220.529355422111	1192.070408605434	1097.049924892978	814.618291254953	1412.900126734292	974.468867496422	766.749948626679	
